<svg xmlns="http://www.w3.org/2000/svg" version="1.1" xmlns:xlink="http://www.w3.org/1999/xlink" xmlns:svgjs="http://svgjs.dev/svgjs" viewBox="0 0 2400 800"><defs><linearGradient x1="50%" y1="0%" x2="50%" y2="100%" id="sssurf-grad"><stop stop-color="rgba(76,149,156,1)" stop-opacity="1" offset="0%" data-darkreader-inline-stopcolor="" style="--darkreader-inline-stopcolor: #3d777d;"></stop><stop stop-color="rgba(134,219,188,1)" stop-opacity="1" offset="100%" data-darkreader-inline-stopcolor="" style="--darkreader-inline-stopcolor: #21705a;"></stop></linearGradient></defs><g fill="url(#sssurf-grad)" transform="matrix(1,0,0,1,8.247314453125,251.0734634399414)"><path d="M-10,10C47.63888888888889,16.666666666666664,153.47222222222223,66.375,266.6666666666667,42C379.86111111111114,17.625,422.2222222222223,-102.20833333333333,533.3333333333334,-107C644.4444444444445,-111.79166666666667,688.8888888888889,2.125,800,19C911.1111111111111,35.875,955.5555555555557,-50.791666666666664,1066.6666666666667,-26C1177.7777777777778,-1.2083333333333357,1222.2222222222224,143.625,1333.3333333333335,138C1444.4444444444446,132.375,1488.888888888889,-36.33333333333333,1600,-53C1711.111111111111,-69.66666666666667,1755.5555555555557,55.291666666666664,1866.6666666666667,58C1977.7777777777778,60.708333333333336,2022.2222222222224,-48.333333333333336,2133.3333333333335,-40C2244.4444444444443,-31.666666666666664,2292.3611111111113,6.333333333333343,2400,98C2507.6388888888887,189.66666666666666,3254.1666666666665,232.91666666666669,2650,400C2045.8333333333335,567.0833333333333,156.25,795.8333333333334,-500,900" transform="matrix(1,0,0,1,0,61)" opacity="0.05"></path><path d="M-10,10C47.63888888888889,16.666666666666664,153.47222222222223,66.375,266.6666666666667,42C379.86111111111114,17.625,422.2222222222223,-102.20833333333333,533.3333333333334,-107C644.4444444444445,-111.79166666666667,688.8888888888889,2.125,800,19C911.1111111111111,35.875,955.5555555555557,-50.791666666666664,1066.6666666666667,-26C1177.7777777777778,-1.2083333333333357,1222.2222222222224,143.625,1333.3333333333335,138C1444.4444444444446,132.375,1488.888888888889,-36.33333333333333,1600,-53C1711.111111111111,-69.66666666666667,1755.5555555555557,55.291666666666664,1866.6666666666667,58C1977.7777777777778,60.708333333333336,2022.2222222222224,-48.333333333333336,2133.3333333333335,-40C2244.4444444444443,-31.666666666666664,2292.3611111111113,6.333333333333343,2400,98C2507.6388888888887,189.66666666666666,3254.1666666666665,232.91666666666669,2650,400C2045.8333333333335,567.0833333333333,156.25,795.8333333333334,-500,900" transform="matrix(1,0,0,1,0,122)" opacity="0.37"></path><path d="M-10,10C47.63888888888889,16.666666666666664,153.47222222222223,66.375,266.6666666666667,42C379.86111111111114,17.625,422.2222222222223,-102.20833333333333,533.3333333333334,-107C644.4444444444445,-111.79166666666667,688.8888888888889,2.125,800,19C911.1111111111111,35.875,955.5555555555557,-50.791666666666664,1066.6666666666667,-26C1177.7777777777778,-1.2083333333333357,1222.2222222222224,143.625,1333.3333333333335,138C1444.4444444444446,132.375,1488.888888888889,-36.33333333333333,1600,-53C1711.111111111111,-69.66666666666667,1755.5555555555557,55.291666666666664,1866.6666666666667,58C1977.7777777777778,60.708333333333336,2022.2222222222224,-48.333333333333336,2133.3333333333335,-40C2244.4444444444443,-31.666666666666664,2292.3611111111113,6.333333333333343,2400,98C2507.6388888888887,189.66666666666666,3254.1666666666665,232.91666666666669,2650,400C2045.8333333333335,567.0833333333333,156.25,795.8333333333334,-500,900" transform="matrix(1,0,0,1,0,183)" opacity="0.68"></path><path d="M-10,10C47.63888888888889,16.666666666666664,153.47222222222223,66.375,266.6666666666667,42C379.86111111111114,17.625,422.2222222222223,-102.20833333333333,533.3333333333334,-107C644.4444444444445,-111.79166666666667,688.8888888888889,2.125,800,19C911.1111111111111,35.875,955.5555555555557,-50.791666666666664,1066.6666666666667,-26C1177.7777777777778,-1.2083333333333357,1222.2222222222224,143.625,1333.3333333333335,138C1444.4444444444446,132.375,1488.888888888889,-36.33333333333333,1600,-53C1711.111111111111,-69.66666666666667,1755.5555555555557,55.291666666666664,1866.6666666666667,58C1977.7777777777778,60.708333333333336,2022.2222222222224,-48.333333333333336,2133.3333333333335,-40C2244.4444444444443,-31.666666666666664,2292.3611111111113,6.333333333333343,2400,98C2507.6388888888887,189.66666666666666,3254.1666666666665,232.91666666666669,2650,400C2045.8333333333335,567.0833333333333,156.25,795.8333333333334,-500,900" transform="matrix(1,0,0,1,0,244)" opacity="1.00"></path></g></svg>